# xmcd CD database file
#
# Track frame offsets:
#	150
#	23184
#	43417
#	68238
#
# Disc length: 1206 seconds
#
# Revision: 0
# Processed by: cddbd v1.5.1PL0 Copyright (c) Steve Scherf et al.
# Submitted via: CDex 1.40Release
#
DISCID=3404b404
DTITLE=名取香り - Darling
DYEAR=2005
DGENRE=JPop
TTITLE0=Darling
TTITLE1=『For Isla Bonita』...素敵な島へ
TTITLE2=Player -SHUYA's Break of Dawn Edit-
TTITLE3=Player -SHUYA's Classic Edit-
EXTD=YEAR: 2005
EXTT0=
EXTT1=
EXTT2=
EXTT3=
PLAYORDER=
